#format: frame checksums
#version: 2
#hash: MD5
#extradata 0,                              42, e89deaac1c1a77d78033d7d9c66b8264
#tb 0: 1/61440
#media_type 0: video
#codec_id 0: ffv1
#dimensions 0: 320x180
#sar 0: 0/1
#stream#, dts,        pts, duration,     size, hash
0,          0,          0,     2048,     5750, e361c0ce0fc1e3961a2709f22d10cd9c
0,       2048,       2048,     2048,     4666, 695796b6defb9467cf44c34df7301271
0,       4096,       4096,     2048,     4666, 695796b6defb9467cf44c34df7301271
0,       6144,       6144,     2048,     5773, f042db70073ed69990c8416fdff4f7c2
0,       8192,       8192,     2048,     5773, f042db70073ed69990c8416fdff4f7c2
0,      10240,      10240,     2048,     5907, e2e98c5162259fc6e3eb2e9dc33ef3c3
0,      12288,      12288,     2048,     5907, e2e98c5162259fc6e3eb2e9dc33ef3c3
0,      14336,      14336,     2048,     5210, d698d3e7ec5830176d45eefe67eef7bf
0,      16384,      16384,     2048,     5210, d698d3e7ec5830176d45eefe67eef7bf
0,      18432,      18432,     2048,     6155, 739a4f7b3c97a4bf61c83a7f8ff78f3e
0,      20480,      20480,     2048,     6155, 739a4f7b3c97a4bf61c83a7f8ff78f3e
0,      22528,      22528,     2048,     6420, 11323537c2aaba8d2749419a916873cb
0,      24576,      24576,     2048,     6420, 11323537c2aaba8d2749419a916873cb
0,      26624,      26624,     2048,     5647, 39c916a0ee0b71e58c757836343885d9
0,      28672,      28672,     2048,     5647, 39c916a0ee0b71e58c757836343885d9
0,      30720,      30720,     2048,     6725, e7f035cac9be05ff14e6cf02d8771fd3
0,      32768,      32768,     2048,     6725, e7f035cac9be05ff14e6cf02d8771fd3
0,      34816,      34816,     2048,     6077, 0f54b7b645423ab691e6c24b02c54f7c
0,      36864,      36864,     2048,     6077, 0f54b7b645423ab691e6c24b02c54f7c
0,      38912,      38912,     2048,     6872, 807003d0108f3b46132bc7c482c9dc33
0,      40960,      40960,     2048,     6872, 807003d0108f3b46132bc7c482c9dc33
0,      43008,      43008,     2048,     5690, a504a5994a52c1f26b4ad00399921dd6
0,      45056,      45056,     2048,     5690, a504a5994a52c1f26b4ad00399921dd6
0,      47104,      47104,     2048,     6842, 471e4e539e97bdbb0eb96ff5ece986a4
0,      49152,      49152,     2048,     6842, 471e4e539e97bdbb0eb96ff5ece986a4
0,      51200,      51200,     2048,     6882, d9542ef167fe47721560fe91e60f9af0
0,      53248,      53248,     2048,     6882, d9542ef167fe47721560fe91e60f9af0
0,      55296,      55296,     2048,     6093, 802bdb9315fbaa82642b0a8d610e8bbb
0,      57344,      57344,     2048,     6093, 802bdb9315fbaa82642b0a8d610e8bbb
0,      59392,      59392,     2048,     6672, ba03e9e69ca761f9f7a23f9db3979070
0,      61440,      61440,     2048,     6672, ba03e9e69ca761f9f7a23f9db3979070
0,      63488,      63488,     2048,     7046, cc2035a511ababfa55a8254ab19517d2
0,      65536,      65536,     2048,     7046, cc2035a511ababfa55a8254ab19517d2
0,      67584,      67584,     2048,     6150, 5c2e8c197e77b989ac8e4a468416980e
0,      69632,      69632,     2048,     6150, 5c2e8c197e77b989ac8e4a468416980e
0,      71680,      71680,     2048,     7100, cab9f1d00ab49dae08fd5a5a3a39c373
0,      73728,      73728,     2048,     7100, cab9f1d00ab49dae08fd5a5a3a39c373
0,      75776,      75776,     2048,     6657, e72c94c3afea9022af3d87d2c8beb695
0,      77824,      77824,     2048,     6657, e72c94c3afea9022af3d87d2c8beb695
0,      79872,      79872,     2048,     7467, e4e30a86fa3402eec04def93fe366fca
0,      81920,      81920,     2048,     7467, e4e30a86fa3402eec04def93fe366fca
0,      83968,      83968,     2048,     6413, bc578a474932a07258801c2c8c94735c
0,      86016,      86016,     2048,     6413, bc578a474932a07258801c2c8c94735c
0,      88064,      88064,     2048,     7465, 512b997bb9536d50f6a454c0abc70188
0,      90112,      90112,     2048,     7465, 512b997bb9536d50f6a454c0abc70188
0,      92160,      92160,     2048,     7607, b68812aefc345aea7f1775acaed451cf
0,      94208,      94208,     2048,     7607, b68812aefc345aea7f1775acaed451cf
0,      96256,      96256,     2048,     6927, e12c38e7e87cbfbe15232a6b837f2eb1
0,      98304,      98304,     2048,     6927, e12c38e7e87cbfbe15232a6b837f2eb1
0,     100352,     100352,     2048,     7376, 212b7211ed0b5a63be098df686d2f882
0,     102400,     102400,     2048,     7376, 212b7211ed0b5a63be098df686d2f882
0,     104448,     104448,     2048,     7551, f06ff154d4745a2d309c529cd66081e5
0,     106496,     106496,     2048,     7551, f06ff154d4745a2d309c529cd66081e5
0,     108544,     108544,     2048,     6535, ec379997da0a3ae6ed9c6fcca6c6c5bf
0,     110592,     110592,     2048,     6535, ec379997da0a3ae6ed9c6fcca6c6c5bf
0,     112640,     112640,     2048,     7616, 0996a57dadc11b7dc3d8930ef29cb2ba
0,     114688,     114688,     2048,     7616, 0996a57dadc11b7dc3d8930ef29cb2ba
0,     116736,     116736,     2048,     7149, fcc6af2185bad29ee28df9a8ec830f06
0,     118784,     118784,     2048,     7149, fcc6af2185bad29ee28df9a8ec830f06
0,     120832,     120832,     2048,     7357, 6d1a352bd02e375bf2878e7a392d7d8f
0,     122880,     122880,     2048,     7357, 6d1a352bd02e375bf2878e7a392d7d8f
0,     124928,     124928,     2048,     6694, 875e07ce86f17088e52c269cee1efd72
0,     126976,     126976,     2048,     6694, 875e07ce86f17088e52c269cee1efd72
0,     129024,     129024,     2048,     7927, 98ca925c76be269ce6e60ac45bba5b21
0,     131072,     131072,     2048,     7927, 98ca925c76be269ce6e60ac45bba5b21
0,     133120,     133120,     2048,     7470, 1b955716f47d3e9d16892501324c97f1
0,     135168,     135168,     2048,     7470, 1b955716f47d3e9d16892501324c97f1
0,     137216,     137216,     2048,     7115, 8f00ac1382c18ff2567e0d6847609ff9
0,     139264,     139264,     2048,     7115, 8f00ac1382c18ff2567e0d6847609ff9
0,     141312,     141312,     2048,     7197, 0856d953c7dd0443bfd8aa2e11dde25a
0,     143360,     143360,     2048,     7197, 0856d953c7dd0443bfd8aa2e11dde25a
0,     145408,     145408,     2048,     8018, e4156d24a4b45efb2dce767c0889769e
0,     147456,     147456,     2048,     8018, e4156d24a4b45efb2dce767c0889769e
0,     149504,     149504,     2048,     7351, badebcbdf74eeef93fcf49b36f7ed1ef
0,     151552,     151552,     2048,     7351, badebcbdf74eeef93fcf49b36f7ed1ef
0,     153600,     153600,     2048,     8453, af5529f56df41d3c4a9377e415eb1cf0
0,     155648,     155648,     2048,     8453, af5529f56df41d3c4a9377e415eb1cf0
0,     157696,     157696,     2048,     7995, 75497012012e06874a702233594b729a
0,     159744,     159744,     2048,     7995, 75497012012e06874a702233594b729a
0,     161792,     161792,     2048,     7413, 5874ea734243544d24fba5e62abb347d
0,     163840,     163840,     2048,     7413, 5874ea734243544d24fba5e62abb347d
0,     165888,     165888,     2048,     6256, 85c41e485dfb950841a84c14f7451c57
0,     167936,     167936,     2048,     6256, 85c41e485dfb950841a84c14f7451c57
0,     169984,     169984,     2048,     6602, 32ecd54b391debb11c33f78e126d0f94
0,     172032,     172032,     2048,     6602, 32ecd54b391debb11c33f78e126d0f94
0,     174080,     174080,     2048,     7177, 1f72dd6701078764d0ed63a2e7c39631
0,     176128,     176128,     2048,     7177, 1f72dd6701078764d0ed63a2e7c39631
0,     178176,     178176,     2048,     6374, 711b7ebefd7df5f185a944c78ef73fd9
0,     180224,     180224,     2048,     6374, 711b7ebefd7df5f185a944c78ef73fd9
0,     182272,     182272,     2048,     6595, 6af5c89789409b5de62c853d5cce19b9
0,     184320,     184320,     2048,     6595, 6af5c89789409b5de62c853d5cce19b9
0,     186368,     186368,     2048,     7277, c66d4a454aafd6b15aafa8ada4ce1bac
0,     188416,     188416,     2048,     7277, c66d4a454aafd6b15aafa8ada4ce1bac
0,     190464,     190464,     2048,     6401, b8b4526bb2f31bfb94d9aa73e0bec40f
0,     192512,     192512,     2048,     6401, b8b4526bb2f31bfb94d9aa73e0bec40f
0,     194560,     194560,     2048,     7174, eeaff7ba783c744a46b95aeac3332b9a
0,     196608,     196608,     2048,     7174, eeaff7ba783c744a46b95aeac3332b9a
0,     198656,     198656,     2048,     7191, c84ef530bad94c2d774c8b66f3380713
0,     200704,     200704,     2048,     7191, c84ef530bad94c2d774c8b66f3380713
0,     202752,     202752,     2048,     7586, 75549f0825035228cf9ce1de5209a22c
0,     204800,     204800,     2048,     7586, 75549f0825035228cf9ce1de5209a22c
0,     206848,     206848,     2048,     6915, e6abaaf42ad21348261b03d80d4a931b
0,     208896,     208896,     2048,     6915, e6abaaf42ad21348261b03d80d4a931b
0,     210944,     210944,     2048,     7810, 878fb05849c256ad7690c8001626f910
0,     212992,     212992,     2048,     7810, 878fb05849c256ad7690c8001626f910
0,     215040,     215040,     2048,     7801, a5665e05418684fcb1be6f01f040d063
0,     217088,     217088,     2048,     7801, a5665e05418684fcb1be6f01f040d063
0,     219136,     219136,     2048,     6979, f03e535d8bafbd5e400ba83a8eb4dc4b
0,     221184,     221184,     2048,     6979, f03e535d8bafbd5e400ba83a8eb4dc4b
0,     223232,     223232,     2048,     7340, e54b369e4f2f800dfde5771cd1538414
0,     225280,     225280,     2048,     7340, e54b369e4f2f800dfde5771cd1538414
0,     227328,     227328,     2048,     7766, c52d55f76d759ec6b045ea381d2a39e8
0,     229376,     229376,     2048,     7766, c52d55f76d759ec6b045ea381d2a39e8
0,     231424,     231424,     2048,     7286, 03c5ac79a6e9a12ceb2d69ecb1912bd3
0,     233472,     233472,     2048,     7286, 03c5ac79a6e9a12ceb2d69ecb1912bd3
0,     235520,     235520,     2048,     8397, ea9f05c1ca2b8a35a84eab44f90499b2
0,     237568,     237568,     2048,     8397, ea9f05c1ca2b8a35a84eab44f90499b2
0,     239616,     239616,     2048,     7932, 1400fd54b060d121ca1cfa139e68fc82
0,     241664,     241664,     2048,     7932, 1400fd54b060d121ca1cfa139e68fc82
0,     243712,     243712,     2048,     8080, 6aefee52a61d7a25ae68fb0597ab79e9
0,     245760,     245760,     2048,     8080, 6aefee52a61d7a25ae68fb0597ab79e9
0,     247808,     247808,     2048,     5764, e41c685a53eae792068d440e2e4facc4
0,     249856,     249856,     2048,     4717, 9ff29ca4c9ea06191d614674ca48dfc4
0,     251904,     251904,     2048,     5601, 0a4bfaff419dfae2265ae3e8a3f758ad
0,     253952,     253952,     2048,     5825, 92993ada27e281dfad04f24a1eef23d7
0,     256000,     256000,     2048,     5139, 95e78779f275dc0e164a6950b1f51e31
0,     258048,     258048,     2048,     5681, 71dc47f1ace123e94eb49082873d29a9
0,     260096,     260096,     2048,     6099, 1ad8e1faafb7263c40d69b149a005ec2
0,     262144,     262144,     2048,     5326, 18528ee6d1c4cfd40a3c366ccd456483
0,     264192,     264192,     2048,     6463, 716bde3d739f3faf567d639c06adce24
0,     266240,     266240,     2048,     6004, 348fa6cdbfa0f189a889b0f5d7e9d530
0,     268288,     268288,     2048,     7251, 2d044302c46cd2536a38a3e618f50671
0,     270336,     270336,     2048,     6109, 2796dee0f182e15a5bea72ec0d375b0e
0,     272384,     272384,     2048,     7007, 52479f1592879e3330ca106913f37df0
0,     274432,     274432,     2048,     7073, eb64ad38d1df3fa1a815e17903b7d990
0,     276480,     276480,     2048,     6267, c0cf0db62af657fe3bb1c637c931d805
0,     278528,     278528,     2048,     6662, 8c031b45741c6dbf6e7e9cb6a2558cfb
0,     280576,     280576,     2048,     7164, 0e761c1139c24267496f3c36dcddbdfb
0,     282624,     282624,     2048,     6226, d8c88a1a16d5037f1f52c1ae921ac92e
0,     284672,     284672,     2048,     7379, 68147e6d5f5354d2e00cbc1110042e7c
0,     286720,     286720,     2048,     7001, 2d26b71c93a1f796269acb6cfe72d554
0,     288768,     288768,     2048,     7729, 690d8ea7d9119040ad719a874bff7c8f
0,     290816,     290816,     2048,     6809, 3d71290a31b30601e2efcf227492cc31
0,     292864,     292864,     2048,     7462, 674134d7cf26b812fe249ebd8fd58b70
0,     294912,     294912,     2048,     7737, a75a9ffdd6aece43bdfe89abd9a321f7
0,     296960,     296960,     2048,     7035, 018aa8df25b8c1df755f0e45fa79c152
0,     299008,     299008,     2048,     7583, 75cfff082d3a599ac407500fdcc85755
0,     301056,     301056,     2048,     7890, 1e50d0e90fc6465326a07b79e101c857
0,     303104,     303104,     2048,     7197, 72d14770775a987112aafa980b4d41b7
0,     305152,     305152,     2048,     8277, 5819538b0ae74c3ae5af25c7c9fcfa98
0,     307200,     307200,     2048,     7890, a1b1a64803855ed7528755ca7528beac
0,     309248,     309248,     2048,     7913, 65fc69608411baab2a3c2e10c0bbfb2f
0,     311296,     311296,     2048,     6901, 24e7afa9767b9444a3d4f0b4fb187b8c
0,     313344,     313344,     2048,     7752, e80b2657f06635938ab3a31dbc9074dc
0,     315392,     315392,     2048,     7567, 575dfa0b993708aa1a7b764681ea982c
0,     317440,     317440,     2048,     6982, f78e5909c5ad9a4597918bb292c4617b
0,     319488,     319488,     2048,     7524, 51326e30eb9c3e7587db46dff77c0b27
0,     321536,     321536,     2048,     7550, 6b4a2e0803e5656d0ec5daead7782d3e
0,     323584,     323584,     2048,     7179, c108f91ec824878acf2152c9bc0b7b1c
0,     325632,     325632,     2048,     7988, 99791fccf7250075bf88626f35d9eda2
0,     327680,     327680,     2048,     7472, 37dd6c8896532ecf4422edc02948e157
0,     329728,     329728,     2048,     6951, b5be764fd2d1242b3c14cb3564fbb5d0
0,     331776,     331776,     2048,     5840, 1c6c19e1e510c9c7bcf0b1a73e89aee7
0,     333824,     333824,     2048,     6722, 711efa3e02ac20a1ea9abaf6a33ddfc7
0,     335872,     335872,     2048,     6708, 817c5edf2a4e7c7c2da2c9bace7d0fa1
0,     337920,     337920,     2048,     6246, 5a36011dde29499b5b88914e591fc2a7
0,     339968,     339968,     2048,     6929, 4c73b0c8ae03432b5bea617da4f43973
0,     342016,     342016,     2048,     7200, 650d1eb6900067a4f3a4ad8e53035f41
0,     344064,     344064,     2048,     6357, 450aee272659e63f418499d034b3d2e3
0,     346112,     346112,     2048,     7671, 4c3a972a34873d3a2b7dbbd09a23da2f
0,     348160,     348160,     2048,     7046, fff566551eced6ff8c9e64a2a4cff52f
0,     350208,     350208,     2048,     7601, 1549c5de2278e2c6e76498f6c9124f0d
0,     352256,     352256,     2048,     6552, 55c1a6a1da965bb96cc84ad6c8bedbca
0,     354304,     354304,     2048,     7356, 44e41029b8daa5a18d060eaa4dc5623d
0,     356352,     356352,     2048,     7475, 5051fcb7223ad32c5e79e2df4f223eba
0,     358400,     358400,     2048,     6326, cd6ff8beeb8bfe00fdaa95e111bbab95
0,     360448,     360448,     2048,     7271, 4bf316ace0a155807395da218e244b0f
0,     362496,     362496,     2048,     7159, e9bec22cf69a0cdf316d8b602619ec75
0,     364544,     364544,     2048,     6951, 5bab0eb3e6f20a7f7ec98221f0192492
0,     366592,     366592,     2048,     7559, 1180142f732b3136ea9a38a6d1b3aa2d
0,     368640,     368640,     2048,     7064, f4bc1946d23211073118768d125a7216
0,     370688,     370688,     2048,     7530, a895e4bcfe8ebefbf2bfca51fe8bb87d
0,     372736,     372736,     2048,     6433, 00688d59c157259b3c6fa07b3dd2c4ba
0,     374784,     374784,     2048,     7761, ec966a9488702f7e073ec51d9cca4afc
0,     376832,     376832,     2048,     7322, 0f266447dfbdf5e4dcb1f058e12a19a3
0,     378880,     378880,     2048,     7437, 14c09ce95ca2c0d1ca113772d16a6f23
0,     380928,     380928,     2048,     7609, 7ef78f5371e9370d05939efd3d393607
0,     382976,     382976,     2048,     7813, 01b485302e404c0610e13b6fde24b5aa
0,     385024,     385024,     2048,     7663, c3cd08207cbd1f1271a8950da8db9f27
0,     387072,     387072,     2048,     8501, 75679842e4664d1133b1fd00259117ce
0,     389120,     389120,     2048,     8221, 09cbd608f60ed90a5c5b602918e4ff70
0,     391168,     391168,     2048,     7058, 6df3f2173dde0028cef6a925bae006db
0,     393216,     393216,     2048,     6318, 19485bee0ad6e3f7623c85572abed472
0,     395264,     395264,     2048,     7370, 73e06696f70d8242c1a5a79f8a743b4f
0,     397312,     397312,     2048,     7186, 5b35f7af42d6c19dcf179f9ba5165255
0,     399360,     399360,     2048,     6651, 1006d5439d081b0ab20af5ff305bea32
0,     401408,     401408,     2048,     7311, ddecc947b61756d3be41954f0eafb4b3
0,     403456,     403456,     2048,     7562, d237a694ae5cd9a87136c83b3f7be09a
0,     405504,     405504,     2048,     6228, ca9b744408262f61fed39204ede418fd
0,     407552,     407552,     2048,     7996, f407290dbc034b7d883a8eaddce08444
0,     409600,     409600,     2048,     7551, ae27c2dd1e733965dbd3c81ffa1e419e
0,     411648,     411648,     2048,     8478, cf98c808d72aefcb6aeef0a790a61d5e
0,     413696,     413696,     2048,     7369, 1e7d669e0220644fda56dfec8a5081d7
0,     415744,     415744,     2048,     8284, 50efc622baa0ae2a2c5e66d2898bb7bd
0,     417792,     417792,     2048,     8246, 6e5b72326f8e1a781348a9109ac677a1
0,     419840,     419840,     2048,     7135, af026dcc61fcaede6aa7d7d9221fd93a
0,     421888,     421888,     2048,     8190, f03e7042e604f4eee234f849ef07e841
0,     423936,     423936,     2048,     8421, 8afd5a34b0046ea4b62b790759240b1d
0,     425984,     425984,     2048,     7377, e69a3b7146a6176441a62e708237bf2f
0,     428032,     428032,     2048,     8722, f624952e28d9a43c8c6eaf09cf1a0b91
0,     430080,     430080,     2048,     7910, 452c9eb09db00dc8b15f4236358f15fd
0,     432128,     432128,     2048,     7910, 452c9eb09db00dc8b15f4236358f15fd
0,     434176,     434176,     2048,     7910, 452c9eb09db00dc8b15f4236358f15fd
0,     436224,     436224,     2048,     7056, 5eef19ee5d961226115ad318ad696744
0,     438272,     438272,     2048,     7056, 5eef19ee5d961226115ad318ad696744
0,     440320,     440320,     2048,     7768, cbda4bab585c7a2fb25331bc504bc070
0,     442368,     442368,     2048,     7768, cbda4bab585c7a2fb25331bc504bc070
0,     444416,     444416,     2048,     7639, 235f38840511481adf5281626815d605
0,     446464,     446464,     2048,     7639, 235f38840511481adf5281626815d605
0,     448512,     448512,     2048,     6927, 301494a9ef018c4a663c7448ec3f8080
0,     450560,     450560,     2048,     6927, 301494a9ef018c4a663c7448ec3f8080
0,     452608,     452608,     2048,     7478, 0c3a191f211ce2b8eda97af35fa0274d
0,     454656,     454656,     2048,     7478, 0c3a191f211ce2b8eda97af35fa0274d
0,     456704,     456704,     2048,     7652, 99af262c5c718edaf44e4a5905dafb78
0,     458752,     458752,     2048,     7652, 99af262c5c718edaf44e4a5905dafb78
0,     460800,     460800,     2048,     7372, 6a4eb38b6ce34878827d7bb3c1b27942
0,     462848,     462848,     2048,     7372, 6a4eb38b6ce34878827d7bb3c1b27942
0,     464896,     464896,     2048,     8447, 5e4c3789fa6bf3ea9b9a63a9a2affa7a
0,     466944,     466944,     2048,     8447, 5e4c3789fa6bf3ea9b9a63a9a2affa7a
0,     468992,     468992,     2048,     8053, 9f50bc3d2ef1597c92a7c038b3ce3894
0,     471040,     471040,     2048,     8053, 9f50bc3d2ef1597c92a7c038b3ce3894
0,     473088,     473088,     2048,     7504, 16b54bee1e97446aa27e25ef6853b0d7
0,     475136,     475136,     2048,     7504, 16b54bee1e97446aa27e25ef6853b0d7
0,     477184,     477184,     2048,     6224, d23d638f4d482f2297f22a6cec87cdc1
0,     479232,     479232,     2048,     6224, d23d638f4d482f2297f22a6cec87cdc1
0,     481280,     481280,     2048,     6635, 17bf8cac9c2b93d17d747eaabe05c7d0
0,     483328,     483328,     2048,     6635, 17bf8cac9c2b93d17d747eaabe05c7d0
0,     485376,     485376,     2048,     7183, cc59487ae9fe43ed8b0e5997d3b46324
0,     487424,     487424,     2048,     7183, cc59487ae9fe43ed8b0e5997d3b46324
0,     489472,     489472,     2048,     6316, 3e5fbb584cbeb5503d5a4a8e9e95d238
0,     491520,     491520,     2048,     6316, 3e5fbb584cbeb5503d5a4a8e9e95d238
0,     493568,     493568,     2048,     6593, b94433802ad2f7b12aaf67f6834ab468
0,     495616,     495616,     2048,     6593, b94433802ad2f7b12aaf67f6834ab468
0,     497664,     497664,     2048,     7282, 13a41e43e91d925055e802c5c5754c83
0,     499712,     499712,     2048,     7282, 13a41e43e91d925055e802c5c5754c83
0,     501760,     501760,     2048,     6430, 38304eb0f53c9ab01daec04c8447bad4
0,     503808,     503808,     2048,     6430, 38304eb0f53c9ab01daec04c8447bad4
0,     505856,     505856,     2048,     7720, 130cee03cc8f8f42bcbd6fc0a0455823
0,     507904,     507904,     2048,     7720, 130cee03cc8f8f42bcbd6fc0a0455823
0,     509952,     509952,     2048,     7194, f0cab1d9bffe6232da43664756889239
0,     512000,     512000,     2048,     7194, f0cab1d9bffe6232da43664756889239
0,     514048,     514048,     2048,     8217, cd7f718c5b8c7085fdb34a3b407b7598
0,     516096,     516096,     2048,     8217, cd7f718c5b8c7085fdb34a3b407b7598
0,     518144,     518144,     2048,     7460, e229ecf9fd7efd6bb55f6be8d7f4c472
0,     520192,     520192,     2048,     7460, e229ecf9fd7efd6bb55f6be8d7f4c472
0,     522240,     522240,     2048,     8265, cb31aae709a76eae7d36ac212f01e2db
0,     524288,     524288,     2048,     8265, cb31aae709a76eae7d36ac212f01e2db
0,     526336,     526336,     2048,     8358, 1192a357c4ece4ff8ee6bd4a12c4c1e7
0,     528384,     528384,     2048,     8358, 1192a357c4ece4ff8ee6bd4a12c4c1e7
0,     530432,     530432,     2048,     7673, 52e64140d47383d95447a262578552f9
0,     532480,     532480,     2048,     7673, 52e64140d47383d95447a262578552f9
0,     534528,     534528,     2048,     8238, bf19ead04d53d2ea32758c7b785e03ce
0,     536576,     536576,     2048,     8238, bf19ead04d53d2ea32758c7b785e03ce
0,     538624,     538624,     2048,     8385, 4a4ba325eb8ab689f96a28b29e38b90d
0,     540672,     540672,     2048,     8385, 4a4ba325eb8ab689f96a28b29e38b90d
0,     542720,     542720,     2048,     7739, 0dc5b6d5c8b663ed29790a75ed0a05ea
0,     544768,     544768,     2048,     7739, 0dc5b6d5c8b663ed29790a75ed0a05ea
0,     546816,     546816,     2048,     8711, 37c9f32d12d17ab7dbc58efd8dc2a3db
0,     548864,     548864,     2048,     8711, 37c9f32d12d17ab7dbc58efd8dc2a3db
0,     550912,     550912,     2048,     8375, 879dd3793333f192a3e4cdfa82f2b034
0,     552960,     552960,     2048,     8375, 879dd3793333f192a3e4cdfa82f2b034
0,     555008,     555008,     2048,     7950, b1f16d70871e835effa0c407b8cda4c2
0,     557056,     557056,     2048,     7950, b1f16d70871e835effa0c407b8cda4c2
0,     559104,     559104,     2048,     6972, 69c8d4d16e18894a487c6fe4277dd0d5
0,     561152,     561152,     2048,     6972, 69c8d4d16e18894a487c6fe4277dd0d5
0,     563200,     563200,     2048,     7709, 778d1814e531869c42b0b8d8edc44722
0,     565248,     565248,     2048,     7709, 778d1814e531869c42b0b8d8edc44722
0,     567296,     567296,     2048,     7874, 94cd7f85127d4cc89321ab378d02f1ca
0,     569344,     569344,     2048,     7874, 94cd7f85127d4cc89321ab378d02f1ca
0,     571392,     571392,     2048,     7142, 2f4b4535c3034af4e5cce74b9c7a03bd
0,     573440,     573440,     2048,     7142, 2f4b4535c3034af4e5cce74b9c7a03bd
0,     575488,     575488,     2048,     8099, fd61dd15a777bd7310624a8a911837c6
0,     577536,     577536,     2048,     8099, fd61dd15a777bd7310624a8a911837c6
0,     579584,     579584,     2048,     8301, 5f4eaeaec3543371c283e1369b3ceedf
0,     581632,     581632,     2048,     8301, 5f4eaeaec3543371c283e1369b3ceedf
0,     583680,     583680,     2048,     7570, d026d2b4b0da673e2aab8839bf7a9c98
0,     585728,     585728,     2048,     7570, d026d2b4b0da673e2aab8839bf7a9c98
0,     587776,     587776,     2048,     8609, 115c471fcd0adcfd2789746682261487
0,     589824,     589824,     2048,     8609, 115c471fcd0adcfd2789746682261487
0,     591872,     591872,     2048,     7911, 8c7e7c053615d50ecee0ecf44c6244a7
0,     593920,     593920,     2048,     7911, 8c7e7c053615d50ecee0ecf44c6244a7
0,     595968,     595968,     2048,     8323, 7457abffa602f49eb7dbce47983c7332
0,     598016,     598016,     2048,     8323, 7457abffa602f49eb7dbce47983c7332
0,     600064,     600064,     2048,     7568, 9651d3cf168f2e87a8259ed1fad2c500
0,     602112,     602112,     2048,     7568, 9651d3cf168f2e87a8259ed1fad2c500
0,     604160,     604160,     2048,     8440, 5de9099e8587e128483811d11b515fca
0,     606208,     606208,     2048,     8440, 5de9099e8587e128483811d11b515fca
0,     608256,     608256,     2048,     8463, 89f993a7a76ef4591dc11cd5abdb8313
0,     610304,     610304,     2048,     8463, 89f993a7a76ef4591dc11cd5abdb8313
0,     612352,     612352,     2048,     7949, f1f65e6f78eb720bd0cdf2622b7c95c7
0,     614400,     614400,     2048,     7949, f1f65e6f78eb720bd0cdf2622b7c95c7
0,     616448,     616448,     2048,     8165, dfb3f8f9f29eee7dc75d80086d0bf2cb
0,     618496,     618496,     2048,     8165, dfb3f8f9f29eee7dc75d80086d0bf2cb
0,     620544,     620544,     2048,     8424, 5fd48eaaada4f3332af72fb367223134
0,     622592,     622592,     2048,     8424, 5fd48eaaada4f3332af72fb367223134
0,     624640,     624640,     2048,     7787, b55d490c6d79d05bb72cd86295ac533c
0,     626688,     626688,     2048,     7787, b55d490c6d79d05bb72cd86295ac533c
0,     628736,     628736,     2048,     8359, 2a38edff4a06e6e9e8e516715c441164
0,     630784,     630784,     2048,     8359, 2a38edff4a06e6e9e8e516715c441164
0,     632832,     632832,     2048,     8037, 40ce9d1beff103a6e2846400248e3b24
0,     634880,     634880,     2048,     8037, 40ce9d1beff103a6e2846400248e3b24
0,     636928,     636928,     2048,     6955, c6c93a7a7485e5fc162f47bcab7bbde0
0,     638976,     638976,     2048,     6955, c6c93a7a7485e5fc162f47bcab7bbde0
0,     641024,     641024,     2048,     6008, 72e5d48830b72d1fe97eed3ccbd09f90
0,     643072,     643072,     2048,     6008, 72e5d48830b72d1fe97eed3ccbd09f90
0,     645120,     645120,     2048,     7104, c491572f1c69832e8d5d8bac3498cbae
0,     647168,     647168,     2048,     7104, c491572f1c69832e8d5d8bac3498cbae
0,     649216,     649216,     2048,     7148, 623a1cdb4902b19aa6f885e1b615dc66
0,     651264,     651264,     2048,     7148, 623a1cdb4902b19aa6f885e1b615dc66
0,     653312,     653312,     2048,     6598, af4038c721120af43cb3dc963b857c48
0,     655360,     655360,     2048,     6598, af4038c721120af43cb3dc963b857c48
0,     657408,     657408,     2048,     6913, 5a4adc44fe16c76b3cb6c8b93dde4c07
0,     659456,     659456,     2048,     6913, 5a4adc44fe16c76b3cb6c8b93dde4c07
0,     661504,     661504,     2048,     7103, 9ba063a36821958262e43062ea67936c
0,     663552,     663552,     2048,     7103, 9ba063a36821958262e43062ea67936c
0,     665600,     665600,     2048,     6151, a4a5a06a219000c9e787d219a0f6343f
0,     667648,     667648,     2048,     6151, a4a5a06a219000c9e787d219a0f6343f
0,     669696,     669696,     2048,     7059, e5e3114798aebbeb1db96acc15cc745f
0,     671744,     671744,     2048,     7059, e5e3114798aebbeb1db96acc15cc745f
0,     673792,     673792,     2048,     6713, 8fa7e2e36093a46e7ef6a85602686b34
0,     675840,     675840,     2048,     6713, 8fa7e2e36093a46e7ef6a85602686b34
0,     677888,     677888,     2048,     6713, 8fa7e2e36093a46e7ef6a85602686b34
0,     679936,     679936,     2048,     6713, 8fa7e2e36093a46e7ef6a85602686b34
